PathFileType	4	(X/Y/Z)	/Users/itak/Documents/Research/Walk-IL/dataset/trc/00576_00009.trc
DataRate	CameraRate	NumFrames	NumMarkers	Units	OrigDataRate	OrigDataStartFrame	OrigNumFrames
100.000000	100.000000	4	53	mm	100.000000	329	527
Frame#	Time	RPSI			LPSI			L3			STRN			T10			C7			CLAV			RBAK			LBAK			LSHO			LUPA			LAEL			LAOL			LWTS			LWPS			LFRA			LIFD			LHPS			LHTS			RSHO			RUPA			RAEL			RAOL			RWTS			RWPS			RFRA			RIFD			RHTS			RHPS			RBHD			LFHD			RFHD			LBHD			LHIP			RHIP			RASI			LASI			LKNE			LTHI			LANK			LTIP			LTOE			LMT1			LMT5			LHEE			RKNE			RTHI			RANK			RTIP			RTOE			RMT1			RMT5			RHEE			
		X1	Y1	Z1	X2	Y2	Z2	X3	Y3	Z3	X4	Y4	Z4	X5	Y5	Z5	X6	Y6	Z6	X7	Y7	Z7	X8	Y8	Z8	X9	Y9	Z9	X10	Y10	Z10	X11	Y11	Z11	X12	Y12	Z12	X13	Y13	Z13	X14	Y14	Z14	X15	Y15	Z15	X16	Y16	Z16	X17	Y17	Z17	X18	Y18	Z18	X19	Y19	Z19	X20	Y20	Z20	X21	Y21	Z21	X22	Y22	Z22	X23	Y23	Z23	X24	Y24	Z24	X25	Y25	Z25	X26	Y26	Z26	X27	Y27	Z27	X28	Y28	Z28	X29	Y29	Z29	X30	Y30	Z30	X31	Y31	Z31	X32	Y32	Z32	X33	Y33	Z33	X34	Y34	Z34	X35	Y35	Z35	X36	Y36	Z36	X37	Y37	Z37	X38	Y38	Z38	X39	Y39	Z39	X40	Y40	Z40	X41	Y41	Z41	X42	Y42	Z42	X43	Y43	Z43	X44	Y44	Z44	X45	Y45	Z45	X46	Y46	Z46	X47	Y47	Z47	X48	Y48	Z48	X49	Y49	Z49	X50	Y50	Z50	X51	Y51	Z51	X52	Y52	Z52	X53	Y53	Z53	

330	3.29	402.2884521484375	1004.883850097656	17.93692779541016	309.8466491699219	1010.070556640625	-78.13042449951172	356.7982177734375	1106.080200195312	-37.94558334350586	523.9398193359375	1291.58544921875	-209.2033386230469	352.9884948730469	1231.4609375	-34.29874038696289	404.1322631835938	1504.790161132812	-57.79386901855469	514.223388671875	1403.4365234375	-193.1375274658203	414.122314453125	1377.31298828125	48.98563385009766	312.1518249511719	1454.935424804688	-97.63468170166016	320.079833984375	1481.493774414062	-224.6346130371094	256.6454467773438	1358.381103515625	-279.9476318359375	259.7709045410156	1144.193237304688	-336.2726135253906	238.1918792724609	1119.021118164062	-240.2618408203125	390.1126403808594	930.4246826171875	-411.8448791503906	311.3119201660156	899.73974609375	-434.5608825683594	280.7719421386719	1065.850341796875	-371.6366577148438	410.2492980957031	765.3442993164062	-439.9593505859375	331.3622436523438	843.4229736328125	-446.37451171875	397.6095275878906	859.6568603515625	-451.7167358398438	555.5421142578125	1461.782836914062	6.093111991882324	590.5940551757812	1394.882934570312	64.10127258300781	624.8008422851562	1106.604858398438	92.22379302978516	568.1710205078125	1086.240112304688	112.1740798950195	705.9501342773438	905.7740478515625	-50.33481979370117	720.0763549804688	877.1491088867188	25.20978927612305	640.4257202148438	1052.192626953125	85.88523864746094	716.1446533203125	741.756591796875	-76.83500671386719	745.3302001953125	819.940673828125	-69.34680938720703	737.76318359375	806.6653442382812	3.041152954101562	525.7169799804688	1684.793579101562	-73.39027404785156	504.2681274414062	1703.814086914062	-278.9172973632812	611.9855346679688	1700.624145507812	-183.0801086425781	406.1226501464844	1686.581665039062	-189.7602996826172	309.5448913574219	929.8126220703125	-261.9638061523438	579.2540283203125	940.043212890625	12.8268404006958	597.49462890625	975.9513549804688	-87.77491760253906	400.5500793457031	958.826171875	-279.6020202636719	421.178466796875	489.8343811035156	-222.7444305419922	379.1358032226562	652.8900756835938	-252.8818817138672	360.9551696777344	38.10945510864258	-100.3170623779297	377.8837280273438	246.1187896728516	-151.7934722900391	563.2152709960938	40.09309005737305	-192.3292236328125	527.6317138671875	44.02506637573242	-117.5346984863281	445.9713439941406	38.94644546508789	-189.6767425537109	344.4183349609375	39.47475814819336	-14.90976047515869	665.1327514648438	518.5193481445312	-93.71269226074219	630.63818359375	799.0234375	-34.11832046508789	568.5097045898438	70.32015991210938	53.11557388305664	653.5358276367188	374.3269958496094	-75.07784271240234	694.8543090820312	58.84099197387695	-123.0991363525391	620.2149658203125	56.04209899902344	-110.3933334350586	673.488037109375	55.17996978759766	-20.54049110412598	490.820556640625	64.59744262695312	53.78512954711914	
331	3.3	406.9914245605469	1004.884582519531	15.41756343841553	313.8818359375	1010.097351074219	-80.17613220214844	361.0687561035156	1106.146240234375	-40.24149703979492	527.4140625	1291.494506835938	-212.6580200195312	357.446044921875	1231.624389648438	-36.90412139892578	408.3086242675781	1504.834594726562	-60.92243194580078	517.7989501953125	1403.371215820312	-196.6966094970703	418.8738403320312	1377.525390625	45.93315124511719	316.1854248046875	1454.912353515625	-100.3361358642578	323.5326843261719	1481.307495117188	-227.4319458007812	259.9535217285156	1358.129150390625	-282.4057922363281	263.3341674804688	1144.031372070312	-339.0151062011719	242.0418548583984	1118.665649414062	-243.03515625	394.5319213867188	931.123291015625	-415.3466186523438	315.8767700195312	900.0819091796875	-437.9833068847656	284.6441650390625	1065.873901367188	-374.6006774902344	415.6933288574219	766.3698120117188	-444.2221984863281	336.2604370117188	843.924072265625	-450.1126098632812	402.3863830566406	860.5674438476562	-455.4947509765625	560.083740234375	1461.97216796875	2.209099292755127	595.4335327148438	1395.13916015625	60.14324569702148	629.998779296875	1106.891479492188	88.27063751220703	573.46484375	1086.50927734375	108.5867004394531	710.4491577148438	905.9940795898438	-54.57773590087891	724.9922485351562	877.4081420898438	20.9423828125	645.5775756835938	1052.487060546875	81.94511413574219	720.603271484375	741.8336181640625	-80.97476196289062	749.626220703125	820.109375	-73.68244171142578	742.55078125	806.925048828125	-1.291582942008972	529.6937255859375	1684.763916015625	-77.09158325195312	507.7602233886719	1703.719970703125	-282.5356750488281	615.706298828125	1700.532592773438	-186.9503936767578	409.8479614257812	1686.5771484375	-193.1403045654297	312.5532836914062	929.7606201171875	-263.9392395019531	583.9910888671875	940.2522583007812	9.50846004486084	601.4497680664062	976.0867309570312	-91.28650665283203	403.5104064941406	958.6721801757812	-282.0818786621094	422.3475036621094	489.5449829101562	-223.5046234130859	381.2642517089844	652.7399291992188	-254.1644592285156	361.0286560058594	38.15778732299805	-100.2298431396484	378.3345642089844	246.0923461914062	-152.023193359375	563.0861206054688	40.10185623168945	-192.3992004394531	527.6434326171875	43.98659133911133	-117.5022964477539	445.9797058105469	38.96026992797852	-189.6533355712891	344.4436340332031	39.55839920043945	-14.92617130279541	671.5430908203125	519.7847900390625	-100.6064758300781	635.5624389648438	799.6327514648438	-38.47146987915039	586.1947631835938	65.87655639648438	35.63138580322266	663.0220336914062	374.8355102539062	-85.43813323974609	709.6131591796875	60.78480529785156	-143.3751068115234	635.1951904296875	56.57789611816406	-129.2558746337891	690.1121826171875	54.5745735168457	-40.45730590820312	508.6990051269531	58.8264274597168	37.48184585571289	
332	3.31	411.6703186035156	1004.869812011719	12.90593433380127	317.9560241699219	1010.094848632812	-82.24200439453125	365.3677062988281	1106.170654296875	-42.5565071105957	530.8763427734375	1291.385864257812	-216.1008758544922	361.9354248046875	1231.72802734375	-39.49269485473633	412.479248046875	1504.843627929688	-63.98386383056641	521.35205078125	1403.290405273438	-200.2317047119141	423.6297912597656	1377.684448242188	42.90382385253906	320.2192687988281	1454.853515625	-102.981803894043	326.9508056640625	1481.0830078125	-230.181640625	263.2233581542969	1357.823852539062	-284.7826843261719	266.8612060546875	1143.806030273438	-341.6201477050781	245.8744964599609	1118.2548828125	-245.6286926269531	398.8504333496094	931.708984375	-418.6759948730469	320.33544921875	900.3154296875	-441.1998596191406	288.4607849121094	1065.817626953125	-377.4139099121094	420.837158203125	767.197509765625	-448.14697265625	341.0277099609375	844.3148193359375	-453.6239624023438	407.0303649902344	861.3465576171875	-459.0904235839844	564.6124267578125	1462.1240234375	-1.653375744819641	600.269287109375	1395.358032226562	56.19865417480469	635.15771484375	1107.128540039062	84.32876586914062	578.7199096679688	1086.748657226562	104.996208190918	714.864013671875	906.0582275390625	-58.71741104125977	729.8091430664062	877.5543823242188	16.79642677307129	650.6784057617188	1052.730224609375	78.02794647216797	724.8776245117188	741.7385864257812	-84.90560913085938	753.78271484375	820.083984375	-77.85955810546875	747.1987915039062	807.0435180664062	-5.460498809814453	533.6098022460938	1684.718383789062	-80.77043914794922	511.2182922363281	1703.604858398438	-286.1372985839844	619.3771362304688	1700.430297851562	-190.796142578125	413.5173034667969	1686.531005859375	-196.4960784912109	315.5802917480469	929.7017211914062	-265.9306640625	588.7265625	940.41845703125	6.189088344573975	605.4102783203125	976.1417236328125	-94.8017578125	406.4927673339844	958.4974365234375	-284.5682373046875	423.4822082519531	489.2517395019531	-224.2589721679688	383.3744812011719	652.5844116210938	-255.46875	361.0998229980469	38.20911026000977	-100.1437911987305	378.75634765625	246.0649566650391	-152.2530670166016	562.9489135742188	40.11648559570312	-192.4630279541016	527.6511840820312	43.9716911315918	-117.4903411865234	445.9878234863281	38.9759407043457	-189.6492156982422	344.4612426757812	39.64440536499023	-14.93223476409912	677.7652587890625	520.9444580078125	-107.2935791015625	640.47802734375	800.1650390625	-42.72247314453125	603.3074951171875	61.88884735107422	17.89938354492188	672.207275390625	375.4063110351562	-95.70313262939453	723.6350708007812	62.70071411132812	-163.6866302490234	649.5098266601562	57.29547119140625	-148.1789703369141	706.0149536132812	54.18151092529297	-60.53470993041992	526.0597534179688	53.62203216552734	20.89330673217773	
333	3.32	416.3300170898438	1004.834350585938	10.39558124542236	322.082763671875	1010.0615234375	-84.33025360107422	369.6962280273438	1106.149047851562	-44.89246368408203	534.3363647460938	1291.258178710938	-219.5382995605469	366.4446411132812	1231.76953125	-42.05632400512695	416.6554565429688	1504.818603515625	-66.98415374755859	524.893310546875	1403.191528320312	-203.7486877441406	428.3902282714844	1377.785034179688	39.89390563964844	324.2584533691406	1454.7626953125	-105.5779342651367	330.3443908691406	1480.822631835938	-232.8866729736328	266.4639587402344	1357.467651367188	-287.0846252441406	270.3606567382812	1143.51611328125	-344.0921936035156	249.6943817138672	1117.785522460938	-248.0434722900391	403.0830383300781	932.1809692382812	-421.84130859375	324.6907653808594	900.4360961914062	-444.2129516601562	292.226318359375	1065.6796875	-380.0763549804688	425.6758422851562	767.8159790039062	-451.7166137695312	345.6610412597656	844.58642578125	-456.8966369628906	411.5419311523438	861.9840698242188	-462.4913330078125	569.1355590820312	1462.230590820312	-5.497434616088867	605.1022338867188	1395.532592773438	52.26696395874023	640.2752075195312	1107.309814453125	80.40528106689453	583.9375610351562	1086.952880859375	101.4078216552734	719.1951293945312	905.9691772460938	-62.75170516967773	734.5337524414062	877.59130859375	12.76702690124512	655.7301635742188	1052.915649414062	74.13578796386719	728.9667358398438	741.4815673828125	-88.6268310546875	757.8201293945312	819.875	-81.89144897460938	751.7208251953125	807.0237426757812	-9.473054885864258	537.47216796875	1684.6533203125	-84.42137908935547	514.6346435546875	1703.468139648438	-289.7173767089844	623.001953125	1700.32275390625	-194.6223297119141	417.1306762695312	1686.439575195312	-199.8234558105469	318.6308898925781	929.6364135742188	-267.9430541992188	593.4619750976562	940.5318603515625	2.853614807128906	609.3802490234375	976.1156005859375	-98.33145141601562	409.5002746582031	958.3038330078125	-287.0705871582031	424.5877990722656	488.9580993652344	-225.0178680419922	385.4590759277344	652.4220581054688	-256.7970581054688	361.1609497070312	38.25887680053711	-100.0719375610352	379.1532287597656	246.0444030761719	-152.4869232177734	562.8082275390625	40.13621520996094	-192.5237121582031	527.6553955078125	43.98209381103516	-117.500244140625	445.9918823242188	38.98964309692383	-189.6617126464844	344.4727172851562	39.739501953125	-14.92990779876709	683.7941284179688	521.9863891601562	-113.7853927612305	645.3992919921875	800.614013671875	-46.8504638671875	619.8470458984375	58.36005401611328	-0.007697771769016981	681.0894775390625	376.0433654785156	-105.8588333129883	736.8800659179688	64.57009887695312	-184.0071563720703	663.1179809570312	58.18778991699219	-167.1137847900391	721.1729125976562	53.93828201293945	-80.73044586181641	542.8857421875	49.00336074829102	4.139283180236816	
